<?xml version="1.0" standalone="no"?>
<!DOCTYPE svg PUBLIC "-//W3C//DTD SVG 20010904//EN"
 "http://www.w3.org/TR/2001/REC-SVG-20010904/DTD/svg10.dtd">
<svg version="1.0" xmlns="http://www.w3.org/2000/svg"
 width="230.000000pt" height="230.000000pt" viewBox="0 0 230.000000 230.000000"
 preserveAspectRatio="xMidYMid meet">
<metadata>
Created by potrace 1.14, written by Peter Selinger 2001-2017
</metadata>
<g transform="translate(0.000000,230.000000) scale(0.100000,-0.100000)"
fill="#000000" stroke="none">
<path d="M1045 2183 c-155 -56 -249 -164 -276 -317 -28 -161 57 -332 205 -411
48 -26 58 -28 66 -15 21 32 11 55 -36 79 -62 33 -129 110 -150 174 -53 158 16
329 163 402 49 25 70 29 138 29 71 1 88 -3 148 -32 123 -61 183 -168 175 -311
-7 -118 -61 -205 -165 -263 -37 -21 -52 -35 -49 -45 3 -8 6 -21 6 -29 0 -44
141 40 202 121 62 81 80 143 76 255 -3 81 -8 104 -33 154 -68 135 -190 215
-338 222 -62 4 -94 0 -132 -13z"/>
<path d="M1344 2030 c-11 -4 -46 -36 -77 -71 l-57 -63 22 -24 23 -24 56 60
c73 78 91 144 33 122z"/>
<path d="M1122 1864 c-36 -25 -45 -59 -26 -97 33 -62 -7 -317 -62 -400 -51
-78 -149 -116 -345 -137 -76 -7 -96 -6 -113 5 -29 21 -80 19 -100 -4 -55 -61
14 -153 87 -116 36 18 78 19 182 4 259 -36 325 -111 355 -402 9 -85 8 -104 -5
-123 -31 -48 -8 -106 47 -120 22 -5 33 0 58 24 33 34 38 58 15 88 -18 24 -19
86 -1 197 21 128 42 183 90 232 54 56 125 81 287 102 120 15 131 15 147 -1 39
-35 105 -9 118 46 5 22 0 33 -24 58 -35 34 -52 37 -93 13 -26 -15 -39 -16
-137 -5 -292 33 -357 101 -392 416 -10 85 -9 100 4 115 25 28 20 76 -10 100
-32 25 -52 26 -82 5z"/>
<path d="M1018 1712 c-25 -26 -52 -58 -62 -72 -21 -33 -21 -70 1 -70 20 0 143
123 143 143 0 8 -8 21 -18 30 -17 16 -21 14 -64 -31z"/>
<path d="M401 1554 c-278 -101 -357 -445 -150 -653 160 -159 405 -157 559 5
63 66 101 141 80 154 -27 18 -49 10 -66 -22 -23 -45 -103 -127 -144 -148 -126
-64 -280 -40 -380 60 -128 128 -128 330 0 457 62 63 120 87 217 91 72 4 89 1
140 -23 71 -32 126 -84 159 -148 18 -35 30 -47 40 -43 9 3 22 6 30 6 22 0 17
30 -15 85 -36 63 -103 125 -173 161 -45 24 -67 28 -153 31 -73 2 -112 -1 -144
-13z"/>
<path d="M1663 1550 c-103 -34 -204 -125 -243 -220 -15 -36 -12 -40 25 -43 23
-2 32 5 50 38 62 109 163 169 285 170 65 0 84 -4 142 -33 76 -37 120 -83 156
-161 34 -73 36 -183 5 -253 -28 -62 -96 -134 -158 -166 -44 -24 -62 -27 -145
-27 -79 0 -102 4 -137 23 -64 33 -112 80 -145 140 -25 44 -34 53 -52 48 -12
-3 -24 -6 -28 -6 -34 0 44 -135 108 -188 21 -18 64 -45 94 -60 49 -24 66 -27
160 -27 93 0 112 3 162 27 155 72 250 235 234 398 -26 248 -280 416 -513 340z"/>
<path d="M300 1381 c0 -23 76 -109 118 -134 30 -17 31 -17 46 4 19 28 10 47
-46 92 -74 59 -118 74 -118 38z"/>
<path d="M1550 1373 c0 -21 123 -143 144 -143 8 0 20 10 27 21 10 19 5 27 -33
66 -66 68 -138 97 -138 56z"/>
<path d="M594 1099 c-19 -21 -19 -21 38 -74 52 -49 110 -76 126 -61 12 13 -33
78 -81 117 -27 21 -53 39 -57 39 -4 0 -15 -9 -26 -21z"/>
<path d="M1851 1099 l-24 -20 48 -49 c52 -53 107 -85 131 -76 28 11 -18 72
-111 148 -19 15 -22 15 -44 -3z"/>
<path d="M966 898 c-59 -31 -138 -115 -172 -183 -26 -55 -29 -69 -29 -165 0
-99 2 -109 33 -172 122 -247 439 -302 632 -108 154 153 158 385 10 544 -51 54
-151 118 -164 105 -2 -2 -7 -16 -11 -30 -6 -23 -1 -29 39 -53 112 -65 170
-164 171 -286 0 -66 -5 -85 -33 -142 -58 -119 -160 -182 -293 -182 -98 0 -167
32 -238 110 -139 151 -97 393 86 496 45 25 54 34 49 52 -3 12 -6 24 -6 29 0
13 -34 7 -74 -15z"/>
<path d="M1294 738 c-25 -23 -55 -55 -66 -71 l-21 -29 21 -21 22 -21 31 29
c49 46 89 106 89 132 0 35 -24 29 -76 -19z"/>
<path d="M1001 446 c-52 -56 -76 -99 -67 -123 8 -20 51 5 102 59 67 72 68 74
45 97 -12 12 -23 21 -25 21 -2 0 -26 -24 -55 -54z"/>
</g>
</svg>
